<mxfile host="app.diagrams.net" modified="2021-04-15T09:42:52.699Z" agent="5.0 (Windows NT 10.0; Win64; x64) AppleWebKit/537.36 (KHTML, like Gecko) Chrome/89.0.4389.128 Safari/537.36" etag="S5v7ai0lDViX11sK9ydq" version="14.5.9" type="github">
  <diagram id="C5RBs43oDa-KdzZeNtuy" name="Page-1">
    <mxGraphModel dx="1673" dy="868" grid="1" gridSize="10" guides="1" tooltips="1" connect="1" arrows="1" fold="1" page="1" pageScale="1" pageWidth="827" pageHeight="1169" math="0" shadow="1">
      <root>
        <mxCell id="WIyWlLk6GJQsqaUBKTNV-0" />
        <mxCell id="WIyWlLk6GJQsqaUBKTNV-1" parent="WIyWlLk6GJQsqaUBKTNV-0" />
        <mxCell id="EFcwN0B4zdvvYbQqwylS-56" style="edgeStyle=orthogonalEdgeStyle;orthogonalLoop=1;jettySize=auto;html=1;exitX=0.5;exitY=1;exitDx=0;exitDy=0;exitPerimeter=0;entryX=0.5;entryY=0;entryDx=0;entryDy=0;entryPerimeter=0;strokeWidth=2;shadow=0;" edge="1" parent="WIyWlLk6GJQsqaUBKTNV-1" source="EFcwN0B4zdvvYbQqwylS-33" target="EFcwN0B4zdvvYbQqwylS-34">
          <mxGeometry relative="1" as="geometry" />
        </mxCell>
        <mxCell id="EFcwN0B4zdvvYbQqwylS-33" value="调用Judger&lt;br&gt;传入相关参数" style="strokeWidth=2;html=1;shape=mxgraph.flowchart.start_1;whiteSpace=wrap;shadow=0;" vertex="1" parent="WIyWlLk6GJQsqaUBKTNV-1">
          <mxGeometry x="109" y="20" width="110" height="60" as="geometry" />
        </mxCell>
        <mxCell id="EFcwN0B4zdvvYbQqwylS-57" style="edgeStyle=orthogonalEdgeStyle;orthogonalLoop=1;jettySize=auto;html=1;exitX=0.5;exitY=1;exitDx=0;exitDy=0;exitPerimeter=0;entryX=0.5;entryY=0;entryDx=0;entryDy=0;strokeWidth=2;shadow=0;" edge="1" parent="WIyWlLk6GJQsqaUBKTNV-1" source="EFcwN0B4zdvvYbQqwylS-34" target="EFcwN0B4zdvvYbQqwylS-38">
          <mxGeometry relative="1" as="geometry" />
        </mxCell>
        <mxCell id="EFcwN0B4zdvvYbQqwylS-122" style="edgeStyle=orthogonalEdgeStyle;rounded=0;orthogonalLoop=1;jettySize=auto;html=1;exitX=0;exitY=0.5;exitDx=0;exitDy=0;exitPerimeter=0;shadow=0;fontFamily=Lucida Console;strokeWidth=2;entryX=0;entryY=0.5;entryDx=0;entryDy=0;" edge="1" parent="WIyWlLk6GJQsqaUBKTNV-1" source="EFcwN0B4zdvvYbQqwylS-34" target="EFcwN0B4zdvvYbQqwylS-78">
          <mxGeometry relative="1" as="geometry">
            <mxPoint x="300" y="890" as="targetPoint" />
            <Array as="points">
              <mxPoint x="80" y="140" />
              <mxPoint x="80" y="870" />
            </Array>
          </mxGeometry>
        </mxCell>
        <mxCell id="EFcwN0B4zdvvYbQqwylS-34" value="是否传入&lt;br&gt;必要参数" style="strokeWidth=2;html=1;shape=mxgraph.flowchart.decision;whiteSpace=wrap;shadow=0;" vertex="1" parent="WIyWlLk6GJQsqaUBKTNV-1">
          <mxGeometry x="109" y="110" width="110" height="60" as="geometry" />
        </mxCell>
        <mxCell id="EFcwN0B4zdvvYbQqwylS-58" style="edgeStyle=orthogonalEdgeStyle;orthogonalLoop=1;jettySize=auto;html=1;exitX=0.5;exitY=1;exitDx=0;exitDy=0;entryX=0.5;entryY=0;entryDx=0;entryDy=0;strokeWidth=2;shadow=0;" edge="1" parent="WIyWlLk6GJQsqaUBKTNV-1" source="EFcwN0B4zdvvYbQqwylS-38" target="EFcwN0B4zdvvYbQqwylS-40">
          <mxGeometry relative="1" as="geometry" />
        </mxCell>
        <mxCell id="EFcwN0B4zdvvYbQqwylS-38" value="创建临时目录" style="whiteSpace=wrap;html=1;absoluteArcSize=1;arcSize=14;strokeWidth=2;shadow=0;" vertex="1" parent="WIyWlLk6GJQsqaUBKTNV-1">
          <mxGeometry x="109" y="200" width="110" height="60" as="geometry" />
        </mxCell>
        <mxCell id="EFcwN0B4zdvvYbQqwylS-59" style="edgeStyle=orthogonalEdgeStyle;orthogonalLoop=1;jettySize=auto;html=1;exitX=0.5;exitY=1;exitDx=0;exitDy=0;entryX=0.5;entryY=0;entryDx=0;entryDy=0;entryPerimeter=0;strokeWidth=2;shadow=0;" edge="1" parent="WIyWlLk6GJQsqaUBKTNV-1" source="EFcwN0B4zdvvYbQqwylS-40" target="EFcwN0B4zdvvYbQqwylS-41">
          <mxGeometry relative="1" as="geometry" />
        </mxCell>
        <mxCell id="EFcwN0B4zdvvYbQqwylS-40" value="创建临时文件" style="whiteSpace=wrap;html=1;absoluteArcSize=1;arcSize=14;strokeWidth=2;shadow=0;" vertex="1" parent="WIyWlLk6GJQsqaUBKTNV-1">
          <mxGeometry x="109" y="290" width="110" height="60" as="geometry" />
        </mxCell>
        <mxCell id="EFcwN0B4zdvvYbQqwylS-60" style="edgeStyle=orthogonalEdgeStyle;orthogonalLoop=1;jettySize=auto;html=1;exitX=0.5;exitY=1;exitDx=0;exitDy=0;exitPerimeter=0;entryX=0.5;entryY=0;entryDx=0;entryDy=0;strokeWidth=2;shadow=0;" edge="1" parent="WIyWlLk6GJQsqaUBKTNV-1" source="EFcwN0B4zdvvYbQqwylS-41" target="EFcwN0B4zdvvYbQqwylS-42">
          <mxGeometry relative="1" as="geometry" />
        </mxCell>
        <mxCell id="EFcwN0B4zdvvYbQqwylS-123" style="edgeStyle=orthogonalEdgeStyle;rounded=0;orthogonalLoop=1;jettySize=auto;html=1;exitX=0;exitY=0.5;exitDx=0;exitDy=0;exitPerimeter=0;entryX=0;entryY=0.5;entryDx=0;entryDy=0;shadow=0;fontFamily=Lucida Console;strokeWidth=2;" edge="1" parent="WIyWlLk6GJQsqaUBKTNV-1" source="EFcwN0B4zdvvYbQqwylS-41" target="EFcwN0B4zdvvYbQqwylS-78">
          <mxGeometry relative="1" as="geometry">
            <Array as="points">
              <mxPoint x="80" y="410" />
              <mxPoint x="80" y="870" />
            </Array>
          </mxGeometry>
        </mxCell>
        <mxCell id="EFcwN0B4zdvvYbQqwylS-41" value="本地编译&lt;br&gt;是否通过" style="strokeWidth=2;html=1;shape=mxgraph.flowchart.decision;whiteSpace=wrap;shadow=0;" vertex="1" parent="WIyWlLk6GJQsqaUBKTNV-1">
          <mxGeometry x="109" y="380" width="110" height="60" as="geometry" />
        </mxCell>
        <mxCell id="EFcwN0B4zdvvYbQqwylS-61" style="edgeStyle=orthogonalEdgeStyle;orthogonalLoop=1;jettySize=auto;html=1;exitX=0.5;exitY=1;exitDx=0;exitDy=0;entryX=0.5;entryY=0;entryDx=0;entryDy=0;strokeWidth=2;shadow=0;" edge="1" parent="WIyWlLk6GJQsqaUBKTNV-1" source="EFcwN0B4zdvvYbQqwylS-42" target="EFcwN0B4zdvvYbQqwylS-44">
          <mxGeometry relative="1" as="geometry" />
        </mxCell>
        <mxCell id="EFcwN0B4zdvvYbQqwylS-42" value="打包镜像" style="whiteSpace=wrap;html=1;absoluteArcSize=1;arcSize=14;strokeWidth=2;shadow=0;" vertex="1" parent="WIyWlLk6GJQsqaUBKTNV-1">
          <mxGeometry x="109" y="470" width="110" height="60" as="geometry" />
        </mxCell>
        <mxCell id="EFcwN0B4zdvvYbQqwylS-73" style="edgeStyle=orthogonalEdgeStyle;orthogonalLoop=1;jettySize=auto;html=1;exitX=1;exitY=0.5;exitDx=0;exitDy=0;entryX=0;entryY=0.5;entryDx=0;entryDy=0;strokeWidth=2;shadow=0;rounded=0;" edge="1" parent="WIyWlLk6GJQsqaUBKTNV-1" source="EFcwN0B4zdvvYbQqwylS-44" target="EFcwN0B4zdvvYbQqwylS-46">
          <mxGeometry relative="1" as="geometry">
            <Array as="points">
              <mxPoint x="359" y="590" />
              <mxPoint x="359" y="50" />
            </Array>
          </mxGeometry>
        </mxCell>
        <mxCell id="EFcwN0B4zdvvYbQqwylS-44" value="启动容器" style="whiteSpace=wrap;html=1;absoluteArcSize=1;arcSize=14;strokeWidth=2;shadow=0;" vertex="1" parent="WIyWlLk6GJQsqaUBKTNV-1">
          <mxGeometry x="109" y="560" width="110" height="60" as="geometry" />
        </mxCell>
        <mxCell id="EFcwN0B4zdvvYbQqwylS-63" style="edgeStyle=orthogonalEdgeStyle;orthogonalLoop=1;jettySize=auto;html=1;exitX=0.5;exitY=1;exitDx=0;exitDy=0;entryX=0.5;entryY=0;entryDx=0;entryDy=0;strokeWidth=2;shadow=0;" edge="1" parent="WIyWlLk6GJQsqaUBKTNV-1" source="EFcwN0B4zdvvYbQqwylS-46" target="EFcwN0B4zdvvYbQqwylS-47">
          <mxGeometry relative="1" as="geometry" />
        </mxCell>
        <mxCell id="EFcwN0B4zdvvYbQqwylS-46" value="调用Executor&lt;br&gt;传入相关参数" style="whiteSpace=wrap;html=1;absoluteArcSize=1;arcSize=14;strokeWidth=2;shadow=0;" vertex="1" parent="WIyWlLk6GJQsqaUBKTNV-1">
          <mxGeometry x="499" y="20" width="110" height="60" as="geometry" />
        </mxCell>
        <mxCell id="EFcwN0B4zdvvYbQqwylS-62" style="edgeStyle=orthogonalEdgeStyle;orthogonalLoop=1;jettySize=auto;html=1;exitX=0.5;exitY=1;exitDx=0;exitDy=0;entryX=0.5;entryY=0;entryDx=0;entryDy=0;strokeWidth=2;shadow=0;" edge="1" parent="WIyWlLk6GJQsqaUBKTNV-1" source="EFcwN0B4zdvvYbQqwylS-47" target="EFcwN0B4zdvvYbQqwylS-48">
          <mxGeometry relative="1" as="geometry" />
        </mxCell>
        <mxCell id="EFcwN0B4zdvvYbQqwylS-47" value="生成子CGroup" style="whiteSpace=wrap;html=1;absoluteArcSize=1;arcSize=14;strokeWidth=2;shadow=0;" vertex="1" parent="WIyWlLk6GJQsqaUBKTNV-1">
          <mxGeometry x="499" y="110" width="110" height="60" as="geometry" />
        </mxCell>
        <mxCell id="EFcwN0B4zdvvYbQqwylS-64" style="edgeStyle=orthogonalEdgeStyle;orthogonalLoop=1;jettySize=auto;html=1;exitX=0.5;exitY=1;exitDx=0;exitDy=0;entryX=0.5;entryY=0;entryDx=0;entryDy=0;strokeWidth=2;shadow=0;" edge="1" parent="WIyWlLk6GJQsqaUBKTNV-1" source="EFcwN0B4zdvvYbQqwylS-48" target="EFcwN0B4zdvvYbQqwylS-49">
          <mxGeometry relative="1" as="geometry" />
        </mxCell>
        <mxCell id="EFcwN0B4zdvvYbQqwylS-48" value="启动计时器" style="whiteSpace=wrap;html=1;absoluteArcSize=1;arcSize=14;strokeWidth=2;shadow=0;" vertex="1" parent="WIyWlLk6GJQsqaUBKTNV-1">
          <mxGeometry x="499" y="200" width="110" height="60" as="geometry" />
        </mxCell>
        <mxCell id="EFcwN0B4zdvvYbQqwylS-71" style="edgeStyle=orthogonalEdgeStyle;orthogonalLoop=1;jettySize=auto;html=1;exitX=0.5;exitY=1;exitDx=0;exitDy=0;entryX=0.5;entryY=0;entryDx=0;entryDy=0;entryPerimeter=0;strokeWidth=2;shadow=0;" edge="1" parent="WIyWlLk6GJQsqaUBKTNV-1" source="EFcwN0B4zdvvYbQqwylS-49" target="EFcwN0B4zdvvYbQqwylS-51">
          <mxGeometry relative="1" as="geometry" />
        </mxCell>
        <mxCell id="EFcwN0B4zdvvYbQqwylS-49" value="启动子进程&lt;br&gt;将子进程纳入Cgroup" style="whiteSpace=wrap;html=1;absoluteArcSize=1;arcSize=14;strokeWidth=2;shadow=0;" vertex="1" parent="WIyWlLk6GJQsqaUBKTNV-1">
          <mxGeometry x="499" y="290" width="110" height="60" as="geometry" />
        </mxCell>
        <mxCell id="EFcwN0B4zdvvYbQqwylS-70" style="edgeStyle=orthogonalEdgeStyle;orthogonalLoop=1;jettySize=auto;html=1;exitX=0.5;exitY=1;exitDx=0;exitDy=0;exitPerimeter=0;entryX=0.5;entryY=0;entryDx=0;entryDy=0;strokeWidth=2;shadow=0;" edge="1" parent="WIyWlLk6GJQsqaUBKTNV-1" source="EFcwN0B4zdvvYbQqwylS-51" target="EFcwN0B4zdvvYbQqwylS-53">
          <mxGeometry relative="1" as="geometry" />
        </mxCell>
        <mxCell id="EFcwN0B4zdvvYbQqwylS-120" style="edgeStyle=orthogonalEdgeStyle;rounded=0;orthogonalLoop=1;jettySize=auto;html=1;exitX=1;exitY=0.5;exitDx=0;exitDy=0;exitPerimeter=0;entryX=1;entryY=0.5;entryDx=0;entryDy=0;shadow=0;fontFamily=Lucida Console;strokeWidth=2;" edge="1" parent="WIyWlLk6GJQsqaUBKTNV-1" source="EFcwN0B4zdvvYbQqwylS-51" target="EFcwN0B4zdvvYbQqwylS-54">
          <mxGeometry relative="1" as="geometry">
            <Array as="points">
              <mxPoint x="640" y="410" />
              <mxPoint x="640" y="590" />
            </Array>
          </mxGeometry>
        </mxCell>
        <mxCell id="EFcwN0B4zdvvYbQqwylS-51" value="子进程是否&lt;br&gt;正常退出" style="strokeWidth=2;html=1;shape=mxgraph.flowchart.decision;whiteSpace=wrap;shadow=0;" vertex="1" parent="WIyWlLk6GJQsqaUBKTNV-1">
          <mxGeometry x="499" y="380" width="110" height="60" as="geometry" />
        </mxCell>
        <mxCell id="EFcwN0B4zdvvYbQqwylS-72" style="edgeStyle=orthogonalEdgeStyle;orthogonalLoop=1;jettySize=auto;html=1;exitX=0.5;exitY=1;exitDx=0;exitDy=0;entryX=0.5;entryY=0;entryDx=0;entryDy=0;strokeWidth=2;shadow=0;" edge="1" parent="WIyWlLk6GJQsqaUBKTNV-1" source="EFcwN0B4zdvvYbQqwylS-53" target="EFcwN0B4zdvvYbQqwylS-54">
          <mxGeometry relative="1" as="geometry" />
        </mxCell>
        <mxCell id="EFcwN0B4zdvvYbQqwylS-53" value="获取运行时间、&lt;br&gt;运行内存" style="whiteSpace=wrap;html=1;absoluteArcSize=1;arcSize=14;strokeWidth=2;shadow=0;" vertex="1" parent="WIyWlLk6GJQsqaUBKTNV-1">
          <mxGeometry x="499" y="470" width="110" height="60" as="geometry" />
        </mxCell>
        <mxCell id="EFcwN0B4zdvvYbQqwylS-75" style="edgeStyle=orthogonalEdgeStyle;orthogonalLoop=1;jettySize=auto;html=1;exitX=0.5;exitY=1;exitDx=0;exitDy=0;entryX=0.5;entryY=0;entryDx=0;entryDy=0;entryPerimeter=0;strokeWidth=2;shadow=0;rounded=0;" edge="1" parent="WIyWlLk6GJQsqaUBKTNV-1" source="EFcwN0B4zdvvYbQqwylS-54" target="EFcwN0B4zdvvYbQqwylS-74">
          <mxGeometry relative="1" as="geometry">
            <Array as="points">
              <mxPoint x="554" y="640" />
              <mxPoint x="358" y="640" />
            </Array>
          </mxGeometry>
        </mxCell>
        <mxCell id="EFcwN0B4zdvvYbQqwylS-54" value="命令行打印结果" style="whiteSpace=wrap;html=1;absoluteArcSize=1;arcSize=14;strokeWidth=2;shadow=0;" vertex="1" parent="WIyWlLk6GJQsqaUBKTNV-1">
          <mxGeometry x="499" y="560" width="110" height="60" as="geometry" />
        </mxCell>
        <mxCell id="EFcwN0B4zdvvYbQqwylS-84" style="edgeStyle=orthogonalEdgeStyle;orthogonalLoop=1;jettySize=auto;html=1;exitX=0.5;exitY=1;exitDx=0;exitDy=0;exitPerimeter=0;entryX=0.5;entryY=0;entryDx=0;entryDy=0;strokeWidth=2;shadow=0;" edge="1" parent="WIyWlLk6GJQsqaUBKTNV-1" source="EFcwN0B4zdvvYbQqwylS-74" target="EFcwN0B4zdvvYbQqwylS-77">
          <mxGeometry relative="1" as="geometry" />
        </mxCell>
        <mxCell id="EFcwN0B4zdvvYbQqwylS-115" style="edgeStyle=orthogonalEdgeStyle;rounded=0;orthogonalLoop=1;jettySize=auto;html=1;exitX=1;exitY=0.5;exitDx=0;exitDy=0;exitPerimeter=0;entryX=1;entryY=0.5;entryDx=0;entryDy=0;shadow=0;fontFamily=Lucida Console;strokeWidth=2;" edge="1" parent="WIyWlLk6GJQsqaUBKTNV-1" source="EFcwN0B4zdvvYbQqwylS-74" target="EFcwN0B4zdvvYbQqwylS-78">
          <mxGeometry relative="1" as="geometry">
            <Array as="points">
              <mxPoint x="450" y="690" />
              <mxPoint x="450" y="870" />
            </Array>
          </mxGeometry>
        </mxCell>
        <mxCell id="EFcwN0B4zdvvYbQqwylS-74" value="判断运行&lt;br&gt;状态码" style="strokeWidth=2;html=1;shape=mxgraph.flowchart.decision;whiteSpace=wrap;shadow=0;" vertex="1" parent="WIyWlLk6GJQsqaUBKTNV-1">
          <mxGeometry x="303" y="660" width="110" height="60" as="geometry" />
        </mxCell>
        <mxCell id="EFcwN0B4zdvvYbQqwylS-83" style="edgeStyle=orthogonalEdgeStyle;orthogonalLoop=1;jettySize=auto;html=1;exitX=0.5;exitY=1;exitDx=0;exitDy=0;entryX=0.5;entryY=0;entryDx=0;entryDy=0;strokeWidth=2;shadow=0;" edge="1" parent="WIyWlLk6GJQsqaUBKTNV-1" source="EFcwN0B4zdvvYbQqwylS-77" target="EFcwN0B4zdvvYbQqwylS-78">
          <mxGeometry relative="1" as="geometry" />
        </mxCell>
        <mxCell id="EFcwN0B4zdvvYbQqwylS-77" value="判断输出结果正误" style="whiteSpace=wrap;html=1;absoluteArcSize=1;arcSize=14;strokeWidth=2;shadow=0;" vertex="1" parent="WIyWlLk6GJQsqaUBKTNV-1">
          <mxGeometry x="303" y="750" width="110" height="60" as="geometry" />
        </mxCell>
        <mxCell id="EFcwN0B4zdvvYbQqwylS-82" style="edgeStyle=orthogonalEdgeStyle;orthogonalLoop=1;jettySize=auto;html=1;exitX=0.5;exitY=1;exitDx=0;exitDy=0;entryX=0.5;entryY=0;entryDx=0;entryDy=0;strokeWidth=2;shadow=0;" edge="1" parent="WIyWlLk6GJQsqaUBKTNV-1" source="EFcwN0B4zdvvYbQqwylS-78" target="EFcwN0B4zdvvYbQqwylS-79">
          <mxGeometry relative="1" as="geometry" />
        </mxCell>
        <mxCell id="EFcwN0B4zdvvYbQqwylS-78" value="返回程序检测结果" style="whiteSpace=wrap;html=1;absoluteArcSize=1;arcSize=14;strokeWidth=2;shadow=0;" vertex="1" parent="WIyWlLk6GJQsqaUBKTNV-1">
          <mxGeometry x="303" y="840" width="110" height="60" as="geometry" />
        </mxCell>
        <mxCell id="EFcwN0B4zdvvYbQqwylS-112" value="" style="edgeStyle=orthogonalEdgeStyle;rounded=0;orthogonalLoop=1;jettySize=auto;html=1;shadow=0;fontFamily=Lucida Console;strokeWidth=2;" edge="1" parent="WIyWlLk6GJQsqaUBKTNV-1" source="EFcwN0B4zdvvYbQqwylS-79" target="EFcwN0B4zdvvYbQqwylS-80">
          <mxGeometry relative="1" as="geometry" />
        </mxCell>
        <mxCell id="EFcwN0B4zdvvYbQqwylS-79" value="回收临时资源" style="whiteSpace=wrap;html=1;absoluteArcSize=1;arcSize=14;strokeWidth=2;shadow=0;" vertex="1" parent="WIyWlLk6GJQsqaUBKTNV-1">
          <mxGeometry x="303" y="940" width="110" height="60" as="geometry" />
        </mxCell>
        <mxCell id="EFcwN0B4zdvvYbQqwylS-80" value="结束" style="strokeWidth=2;html=1;shape=mxgraph.flowchart.terminator;whiteSpace=wrap;shadow=0;" vertex="1" parent="WIyWlLk6GJQsqaUBKTNV-1">
          <mxGeometry x="308" y="1030" width="100" height="60" as="geometry" />
        </mxCell>
        <mxCell id="EFcwN0B4zdvvYbQqwylS-87" value="正常" style="text;html=1;align=center;verticalAlign=middle;resizable=0;points=[];autosize=1;strokeWidth=2;shadow=0;" vertex="1" parent="WIyWlLk6GJQsqaUBKTNV-1">
          <mxGeometry x="360" y="720" width="40" height="20" as="geometry" />
        </mxCell>
        <mxCell id="EFcwN0B4zdvvYbQqwylS-92" value="否" style="text;html=1;align=center;verticalAlign=middle;resizable=0;points=[];autosize=1;strokeWidth=2;shadow=0;" vertex="1" parent="WIyWlLk6GJQsqaUBKTNV-1">
          <mxGeometry x="79" y="390" width="30" height="20" as="geometry" />
        </mxCell>
        <mxCell id="EFcwN0B4zdvvYbQqwylS-86" value="异常" style="text;html=1;align=center;verticalAlign=middle;resizable=0;points=[];autosize=1;strokeWidth=2;shadow=0;" vertex="1" parent="WIyWlLk6GJQsqaUBKTNV-1">
          <mxGeometry x="408" y="670" width="40" height="20" as="geometry" />
        </mxCell>
        <mxCell id="EFcwN0B4zdvvYbQqwylS-118" value="是" style="text;html=1;align=center;verticalAlign=middle;resizable=0;points=[];autosize=1;strokeColor=none;fontFamily=Lucida Console;" vertex="1" parent="WIyWlLk6GJQsqaUBKTNV-1">
          <mxGeometry x="160" y="440" width="30" height="20" as="geometry" />
        </mxCell>
        <mxCell id="EFcwN0B4zdvvYbQqwylS-119" value="是" style="text;html=1;align=center;verticalAlign=middle;resizable=0;points=[];autosize=1;strokeColor=none;fontFamily=Lucida Console;" vertex="1" parent="WIyWlLk6GJQsqaUBKTNV-1">
          <mxGeometry x="550" y="440" width="30" height="20" as="geometry" />
        </mxCell>
        <mxCell id="EFcwN0B4zdvvYbQqwylS-121" value="否" style="text;html=1;align=center;verticalAlign=middle;resizable=0;points=[];autosize=1;strokeWidth=2;shadow=0;" vertex="1" parent="WIyWlLk6GJQsqaUBKTNV-1">
          <mxGeometry x="609" y="390" width="30" height="20" as="geometry" />
        </mxCell>
        <mxCell id="EFcwN0B4zdvvYbQqwylS-124" value="否" style="text;html=1;align=center;verticalAlign=middle;resizable=0;points=[];autosize=1;strokeWidth=2;shadow=0;" vertex="1" parent="WIyWlLk6GJQsqaUBKTNV-1">
          <mxGeometry x="79" y="120" width="30" height="20" as="geometry" />
        </mxCell>
        <mxCell id="EFcwN0B4zdvvYbQqwylS-127" value="是" style="text;html=1;align=center;verticalAlign=middle;resizable=0;points=[];autosize=1;strokeColor=none;fontFamily=Lucida Console;" vertex="1" parent="WIyWlLk6GJQsqaUBKTNV-1">
          <mxGeometry x="160" y="170" width="30" height="20" as="geometry" />
        </mxCell>
      </root>
    </mxGraphModel>
  </diagram>
</mxfile>
